<svg width="216" height="28" viewBox="0 0 216 28" fill="none" xmlns="http://www.w3.org/2000/svg">
<path d="M15.088 2.67542C6.7558 2.67542 0 13.8525 0 13.8525C0 13.8525 6.7558 25.3244 15.088 25.3244C23.4202 25.3244 30.176 13.8525 30.176 13.8525C30.176 13.8525 23.4202 2.67542 15.088 2.67542ZM15.088 21.5496C10.9216 21.5496 7.54399 18.1694 7.54399 13.9999C7.54399 9.83038 10.9216 6.45024 15.088 6.45024C19.2544 6.45024 22.632 9.83038 22.632 13.9999C22.632 18.1694 19.2544 21.5496 15.088 21.5496Z" fill="#1B1A25"/>
<path d="M19.7597 14.2126C19.7597 16.6745 17.6703 18.6667 15.0933 18.6667C12.5163 18.6667 10.4269 16.6745 10.4269 14.2126C10.3901 12.2255 12.3281 10.2932 12.3281 10.2932C12.3281 10.2932 13.2751 11.3798 13.5336 11.397C14.5267 11.4627 15.0933 7.7778 15.0933 7.7778C15.0933 7.7778 19.7597 11.7508 19.7597 14.2126Z" fill="#1B1A25"/>
<path d="M37.0845 12.9165V11.0259L39.8388 10.0222L41.7061 6.14755H44.1803V9.69544H49.9223V12.9165H44.1803V17.3047C44.1803 18.3006 44.3826 19.0009 44.7872 19.4054C45.1918 19.7945 45.9154 19.989 46.9579 19.989C47.6271 19.989 48.2106 19.9345 48.7085 19.8256C49.222 19.7011 49.7044 19.5377 50.1557 19.3354V22.6265C49.6889 22.8133 49.0742 22.9844 48.3117 23.14C47.5648 23.2957 46.7868 23.3735 45.9776 23.3735C44.5616 23.3735 43.3945 23.1478 42.4764 22.6966C41.5739 22.2453 40.9047 21.6151 40.469 20.8059C40.0489 19.9812 39.8388 19.0164 39.8388 17.9116V12.9165H37.0845ZM51.0618 9.69544H55.45L56.2436 14.4804V23H51.9021V14.1303L51.0618 9.69544ZM62.5924 9.50871V13.2433C62.1723 13.15 61.7522 13.0799 61.332 13.0332C60.9274 12.9866 60.554 12.9632 60.2116 12.9632C59.4647 12.9632 58.7878 13.1188 58.1809 13.4301C57.5896 13.7257 57.115 14.2003 56.7571 14.8539C56.4148 15.5074 56.2436 16.3555 56.2436 17.3981L55.38 16.3244C55.4889 15.3752 55.6678 14.4804 55.9168 13.6401C56.1658 12.7998 56.5081 12.0607 56.9438 11.4227C57.3795 10.7691 57.9164 10.2556 58.5544 9.88217C59.2079 9.50871 59.9938 9.32197 60.9119 9.32197C61.1764 9.32197 61.4565 9.33754 61.7522 9.36866C62.0478 9.39978 62.3279 9.44646 62.5924 9.50871ZM71.1211 23.3735C69.5339 23.3735 68.1101 23.0778 66.8497 22.4865C65.6048 21.8952 64.6245 21.0704 63.9087 20.0123C63.1929 18.9542 62.835 17.7171 62.835 16.301C62.835 14.9161 63.1773 13.7024 63.862 12.6598C64.5467 11.6172 65.4881 10.8003 66.6863 10.2089C67.9 9.61763 69.2694 9.32197 70.7944 9.32197C72.3505 9.32197 73.6887 9.66431 74.8091 10.349C75.9295 11.0337 76.7931 11.9984 77.4 13.2433C78.0068 14.4882 78.3103 15.9509 78.3103 17.6315H66.3128V14.9006H75.9295L74.3656 15.8809C74.3189 15.1495 74.14 14.5349 73.8287 14.0369C73.5331 13.5234 73.1363 13.1344 72.6383 12.8699C72.1404 12.5898 71.5491 12.4497 70.8644 12.4497C70.1175 12.4497 69.4717 12.5975 68.9271 12.8932C68.3824 13.1889 67.9545 13.6012 67.6433 14.1303C67.3476 14.6594 67.1998 15.274 67.1998 15.9743C67.1998 16.8612 67.3943 17.6159 67.7833 18.2384C68.1879 18.8608 68.7637 19.3354 69.5106 19.6622C70.2731 19.989 71.1989 20.1524 72.2882 20.1524C73.2841 20.1524 74.28 20.0201 75.2759 19.7556C76.2718 19.4755 77.1666 19.0864 77.9602 18.5885V21.4128C77.0576 22.0352 76.0228 22.5176 74.8558 22.86C73.7043 23.2023 72.4594 23.3735 71.1211 23.3735ZM79.3276 9.69544H83.6458L84.5094 14.8772V23H80.1679V14.2237L79.3276 9.69544ZM89.4811 9.32197C90.7571 9.32197 91.8386 9.57873 92.7256 10.0922C93.6281 10.5902 94.3128 11.306 94.7796 12.2396C95.262 13.1733 95.5032 14.2859 95.5032 15.5775V23H91.1617V16.231C91.1617 15.1262 90.8894 14.2937 90.3447 13.7335C89.8001 13.1577 89.0221 12.8699 88.0106 12.8699C87.2948 12.8699 86.6724 13.0255 86.1433 13.3367C85.6298 13.6323 85.2252 14.0603 84.9296 14.6205C84.6495 15.1651 84.5094 15.8186 84.5094 16.5811L83.1323 15.8575C83.3034 14.4415 83.6847 13.2511 84.276 12.2863C84.8829 11.3215 85.6298 10.5902 86.5168 10.0922C87.4193 9.57873 88.4074 9.32197 89.4811 9.32197ZM109.819 23L109.235 17.9816L110.029 16.3944L109.259 14.387L110.332 5.02717H114.837L113.507 16.0209L114.3 23H109.819ZM110.823 16.3477C110.589 17.7638 110.146 19.0009 109.492 20.059C108.839 21.1016 108.014 21.9185 107.018 22.5098C106.022 23.0856 104.902 23.3735 103.657 23.3735C102.35 23.3735 101.198 23.0778 100.202 22.4865C99.2219 21.8952 98.4517 21.0782 97.8915 20.0356C97.3313 18.9775 97.0512 17.7482 97.0512 16.3477C97.0512 14.9472 97.3313 13.7257 97.8915 12.6831C98.4517 11.625 99.2219 10.8003 100.202 10.2089C101.198 9.61763 102.35 9.32197 103.657 9.32197C104.902 9.32197 106.022 9.61763 107.018 10.2089C108.014 10.7847 108.839 11.5939 109.492 12.6364C110.161 13.679 110.605 14.9161 110.823 16.3477ZM101.439 16.3477C101.439 17.0635 101.587 17.7015 101.883 18.2617C102.178 18.8063 102.583 19.242 103.097 19.5688C103.626 19.88 104.233 20.0356 104.917 20.0356C105.602 20.0356 106.248 19.88 106.855 19.5688C107.477 19.242 108.022 18.8063 108.488 18.2617C108.955 17.7015 109.305 17.0635 109.539 16.3477C109.305 15.6319 108.955 15.0017 108.488 14.4571C108.022 13.8969 107.477 13.4612 106.855 13.15C106.248 12.8232 105.602 12.6598 104.917 12.6598C104.233 12.6598 103.626 12.8232 103.097 13.15C102.583 13.4612 102.178 13.8969 101.883 14.4571C101.587 15.0017 101.439 15.6319 101.439 16.3477ZM131.278 18.7285C131.278 19.7244 130.982 20.5725 130.391 21.2727C129.815 21.9574 128.967 22.4787 127.847 22.8366C126.726 23.1945 125.365 23.3735 123.762 23.3735C122.128 23.3735 120.697 23.1712 119.467 22.7666C118.238 22.362 117.281 21.794 116.596 21.0627C115.912 20.3313 115.546 19.4832 115.499 18.5185H119.911C120.004 18.9075 120.222 19.2498 120.564 19.5455C120.922 19.8411 121.381 20.0668 121.941 20.2224C122.502 20.3624 123.163 20.4325 123.925 20.4325C124.952 20.4325 125.731 20.3235 126.26 20.1057C126.789 19.8878 127.053 19.561 127.053 19.1253C127.053 18.7986 126.859 18.5496 126.47 18.3784C126.096 18.2072 125.419 18.0828 124.439 18.005L122.011 17.8182C120.486 17.7093 119.273 17.4681 118.37 17.0946C117.468 16.7212 116.822 16.2466 116.433 15.6708C116.059 15.0951 115.873 14.4493 115.873 13.7335C115.873 12.7532 116.176 11.9362 116.783 11.2826C117.405 10.6291 118.261 10.1389 119.351 9.81214C120.44 9.48536 121.716 9.32197 123.179 9.32197C124.641 9.32197 125.941 9.51649 127.077 9.90551C128.228 10.2945 129.146 10.8314 129.831 11.5161C130.531 12.2007 130.928 13.0021 131.021 13.9202H126.61C126.547 13.609 126.376 13.3211 126.096 13.0566C125.832 12.7921 125.443 12.582 124.929 12.4264C124.431 12.2552 123.778 12.1696 122.968 12.1696C122.05 12.1696 121.35 12.2708 120.868 12.4731C120.385 12.6753 120.144 12.971 120.144 13.36C120.144 13.6557 120.292 13.8891 120.588 14.0603C120.883 14.2314 121.443 14.3559 122.268 14.4337L125.419 14.6671C126.913 14.7916 128.08 15.0328 128.921 15.3907C129.776 15.7331 130.383 16.1843 130.741 16.7445C131.099 17.3047 131.278 17.9661 131.278 18.7285ZM140.6 23.3735C139.013 23.3735 137.589 23.0778 136.328 22.4865C135.084 21.8952 134.103 21.0704 133.387 20.0123C132.672 18.9542 132.314 17.7171 132.314 16.301C132.314 14.9161 132.656 13.7024 133.341 12.6598C134.025 11.6172 134.967 10.8003 136.165 10.2089C137.379 9.61763 138.748 9.32197 140.273 9.32197C141.829 9.32197 143.167 9.66431 144.288 10.349C145.408 11.0337 146.272 11.9984 146.879 13.2433C147.486 14.4882 147.789 15.9509 147.789 17.6315H135.792V14.9006H145.408L143.844 15.8809C143.798 15.1495 143.619 14.5349 143.308 14.0369C143.012 13.5234 142.615 13.1344 142.117 12.8699C141.619 12.5898 141.028 12.4497 140.343 12.4497C139.596 12.4497 138.95 12.5975 138.406 12.8932C137.861 13.1889 137.433 13.6012 137.122 14.1303C136.826 14.6594 136.679 15.274 136.679 15.9743C136.679 16.8612 136.873 17.6159 137.262 18.2384C137.667 18.8608 138.242 19.3354 138.989 19.6622C139.752 19.989 140.678 20.1524 141.767 20.1524C142.763 20.1524 143.759 20.0201 144.755 19.7556C145.751 19.4755 146.645 19.0864 147.439 18.5885V21.4128C146.536 22.0352 145.502 22.5176 144.335 22.86C143.183 23.2023 141.938 23.3735 140.6 23.3735ZM157.115 23.3735C155.528 23.3735 154.104 23.0778 152.843 22.4865C151.598 21.8952 150.618 21.0704 149.902 20.0123C149.187 18.9542 148.829 17.7171 148.829 16.301C148.829 14.9161 149.171 13.7024 149.856 12.6598C150.54 11.6172 151.482 10.8003 152.68 10.2089C153.894 9.61763 155.263 9.32197 156.788 9.32197C158.344 9.32197 159.682 9.66431 160.803 10.349C161.923 11.0337 162.787 11.9984 163.394 13.2433C164.001 14.4882 164.304 15.9509 164.304 17.6315H152.307V14.9006H161.923L160.359 15.8809C160.313 15.1495 160.134 14.5349 159.822 14.0369C159.527 13.5234 159.13 13.1344 158.632 12.8699C158.134 12.5898 157.543 12.4497 156.858 12.4497C156.111 12.4497 155.465 12.5975 154.921 12.8932C154.376 13.1889 153.948 13.6012 153.637 14.1303C153.341 14.6594 153.193 15.274 153.193 15.9743C153.193 16.8612 153.388 17.6159 153.777 18.2384C154.182 18.8608 154.757 19.3354 155.504 19.6622C156.267 19.989 157.193 20.1524 158.282 20.1524C159.278 20.1524 160.274 20.0201 161.27 19.7556C162.265 19.4755 163.16 19.0864 163.954 18.5885V21.4128C163.051 22.0352 162.017 22.5176 160.849 22.86C159.698 23.2023 158.453 23.3735 157.115 23.3735Z" fill="#1B1A25"/>
<path d="M171.855 14C171.855 7.64873 177.004 2.5 183.355 2.5H204.355C210.707 2.5 215.855 7.64873 215.855 14C215.855 20.3513 210.707 25.5 204.355 25.5H183.355C177.004 25.5 171.855 20.3513 171.855 14Z" fill="#E6E8EA"/>
<path d="M180.614 18.5V9.77273H184.108C184.75 9.77273 185.286 9.8679 185.715 10.0582C186.144 10.2486 186.466 10.5128 186.682 10.8509C186.898 11.1861 187.006 11.5724 187.006 12.0099C187.006 12.3509 186.938 12.6506 186.801 12.9091C186.665 13.1648 186.478 13.375 186.239 13.5398C186.003 13.7017 185.733 13.8168 185.429 13.8849V13.9702C185.762 13.9844 186.073 14.0781 186.362 14.2514C186.655 14.4247 186.892 14.6676 187.074 14.9801C187.256 15.2898 187.347 15.6591 187.347 16.0881C187.347 16.5511 187.232 16.9645 187.002 17.3281C186.774 17.6889 186.438 17.9744 185.992 18.1847C185.546 18.3949 184.996 18.5 184.343 18.5H180.614ZM182.459 16.9915H183.963C184.478 16.9915 184.853 16.8935 185.088 16.6974C185.324 16.4986 185.442 16.2344 185.442 15.9048C185.442 15.6634 185.384 15.4503 185.267 15.2656C185.151 15.081 184.985 14.9361 184.769 14.831C184.556 14.7259 184.301 14.6733 184.006 14.6733H182.459V16.9915ZM182.459 13.4247H183.827C184.08 13.4247 184.304 13.3807 184.5 13.2926C184.699 13.2017 184.855 13.0739 184.969 12.9091C185.085 12.7443 185.144 12.5469 185.144 12.3168C185.144 12.0014 185.032 11.7472 184.807 11.554C184.585 11.3608 184.27 11.2642 183.861 11.2642H182.459V13.4247ZM191.896 18.6278C191.223 18.6278 190.644 18.4915 190.158 18.2188C189.675 17.9432 189.303 17.554 189.041 17.0511C188.78 16.5455 188.649 15.9474 188.649 15.2571C188.649 14.5838 188.78 13.9929 189.041 13.4844C189.303 12.9759 189.671 12.5795 190.145 12.2955C190.622 12.0114 191.182 11.8693 191.824 11.8693C192.256 11.8693 192.658 11.9389 193.03 12.0781C193.405 12.2145 193.732 12.4205 194.01 12.696C194.291 12.9716 194.51 13.3182 194.666 13.7358C194.822 14.1506 194.901 14.6364 194.901 15.1932V15.6918H189.374V14.5668H193.192C193.192 14.3054 193.135 14.0739 193.021 13.8722C192.908 13.6705 192.75 13.5128 192.548 13.3991C192.349 13.2827 192.118 13.2244 191.854 13.2244C191.578 13.2244 191.334 13.2884 191.121 13.4162C190.911 13.5412 190.746 13.7102 190.626 13.9233C190.507 14.1335 190.446 14.3679 190.443 14.6264V15.696C190.443 16.0199 190.503 16.2997 190.622 16.5355C190.744 16.7713 190.916 16.9531 191.138 17.081C191.359 17.2088 191.622 17.2727 191.926 17.2727C192.128 17.2727 192.313 17.2443 192.48 17.1875C192.648 17.1307 192.791 17.0455 192.911 16.9318C193.03 16.8182 193.121 16.679 193.183 16.5142L194.862 16.625C194.777 17.0284 194.602 17.3807 194.338 17.6818C194.077 17.9801 193.739 18.2131 193.324 18.3807C192.912 18.5455 192.436 18.6278 191.896 18.6278ZM199.967 11.9545V13.3182H196.025V11.9545H199.967ZM196.92 10.3864H198.735V16.4886C198.735 16.6562 198.761 16.7869 198.812 16.8807C198.863 16.9716 198.934 17.0355 199.025 17.0724C199.119 17.1094 199.227 17.1278 199.349 17.1278C199.434 17.1278 199.519 17.1207 199.605 17.1065C199.69 17.0895 199.755 17.0767 199.801 17.0682L200.086 18.419C199.995 18.4474 199.867 18.4801 199.703 18.517C199.538 18.5568 199.338 18.581 199.102 18.5895C198.664 18.6065 198.281 18.5483 197.951 18.4148C197.624 18.2812 197.37 18.0739 197.188 17.7926C197.007 17.5114 196.917 17.1562 196.92 16.7273V10.3864ZM203.416 18.6236C202.998 18.6236 202.626 18.5511 202.299 18.4062C201.973 18.2585 201.714 18.0412 201.524 17.7543C201.336 17.4645 201.243 17.1037 201.243 16.6719C201.243 16.3082 201.309 16.0028 201.443 15.7557C201.576 15.5085 201.758 15.3097 201.988 15.1591C202.218 15.0085 202.48 14.8949 202.772 14.8182C203.068 14.7415 203.377 14.6875 203.701 14.6562C204.082 14.6165 204.389 14.5795 204.622 14.5455C204.855 14.5085 205.024 14.4545 205.129 14.3835C205.234 14.3125 205.287 14.2074 205.287 14.0682V14.0426C205.287 13.7727 205.201 13.5639 205.031 13.4162C204.863 13.2685 204.625 13.1946 204.315 13.1946C203.988 13.1946 203.728 13.267 203.535 13.4119C203.342 13.554 203.214 13.733 203.152 13.9489L201.473 13.8125C201.558 13.4148 201.725 13.071 201.975 12.7812C202.225 12.4886 202.548 12.2642 202.943 12.108C203.341 11.9489 203.801 11.8693 204.323 11.8693C204.687 11.8693 205.035 11.9119 205.368 11.9972C205.703 12.0824 206 12.2145 206.258 12.3935C206.52 12.5724 206.725 12.8026 206.876 13.0838C207.027 13.3622 207.102 13.696 207.102 14.0852V18.5H205.38V17.5923H205.329C205.224 17.7969 205.083 17.9773 204.907 18.1335C204.731 18.2869 204.52 18.4077 204.272 18.4957C204.025 18.581 203.74 18.6236 203.416 18.6236ZM203.936 17.3707C204.203 17.3707 204.439 17.3182 204.643 17.2131C204.848 17.1051 205.008 16.9602 205.125 16.7784C205.241 16.5966 205.299 16.3906 205.299 16.1605V15.4659C205.243 15.5028 205.164 15.5369 205.065 15.5682C204.968 15.5966 204.859 15.6236 204.737 15.6491C204.615 15.6719 204.493 15.6932 204.37 15.7131C204.248 15.7301 204.137 15.7457 204.038 15.7599C203.825 15.7912 203.639 15.8409 203.48 15.9091C203.321 15.9773 203.197 16.0696 203.109 16.1861C203.021 16.2997 202.977 16.4418 202.977 16.6122C202.977 16.8594 203.066 17.0483 203.245 17.179C203.427 17.3068 203.657 17.3707 203.936 17.3707Z" fill="#4E616B"/>
</svg>
