<svg width="20" height="17" viewBox="0 0 20 17" fill="none" xmlns="http://www.w3.org/2000/svg">
<path d="M15 3H1.5C1.10218 3 0.720644 3.15804 0.43934 3.43934C0.158035 3.72064 0 4.10218 0 4.5V15C0 15.3978 0.158035 15.7794 0.43934 16.0607C0.720644 16.342 1.10218 16.5 1.5 16.5H15C15.3978 16.5 15.7794 16.342 16.0607 16.0607C16.342 15.7794 16.5 15.3978 16.5 15V4.5C16.5 4.10218 16.342 3.72064 16.0607 3.43934C15.7794 3.15804 15.3978 3 15 3ZM15 15H1.5V4.5H15V15ZM19.5 1.5V12.75C19.5 12.9489 19.421 13.1397 19.2803 13.2803C19.1397 13.421 18.9489 13.5 18.75 13.5C18.5511 13.5 18.3603 13.421 18.2197 13.2803C18.079 13.1397 18 12.9489 18 12.75V1.5H3.75C3.55109 1.5 3.36032 1.42098 3.21967 1.28033C3.07902 1.13968 3 0.948912 3 0.75C3 0.551088 3.07902 0.360322 3.21967 0.21967C3.36032 0.0790178 3.55109 0 3.75 0H18C18.3978 0 18.7794 0.158035 19.0607 0.43934C19.342 0.720644 19.5 1.10218 19.5 1.5Z" fill="#FF8E2C"/>
</svg>
