<svg width="20" height="21" viewBox="0 0 20 21" fill="none" xmlns="http://www.w3.org/2000/svg">
<path d="M16.5 3.75H10.5V0.75C10.5 0.551088 10.421 0.360322 10.2803 0.21967C10.1397 0.0790176 9.94891 0 9.75 0C9.55109 0 9.36032 0.0790176 9.21967 0.21967C9.07902 0.360322 9 0.551088 9 0.75V3.75H3C2.20435 3.75 1.44129 4.06607 0.87868 4.62868C0.31607 5.19129 0 5.95435 0 6.75V17.25C0 18.0456 0.31607 18.8087 0.87868 19.3713C1.44129 19.9339 2.20435 20.25 3 20.25H16.5C17.2956 20.25 18.0587 19.9339 18.6213 19.3713C19.1839 18.8087 19.5 18.0456 19.5 17.25V6.75C19.5 5.95435 19.1839 5.19129 18.6213 4.62868C18.0587 4.06607 17.2956 3.75 16.5 3.75ZM18 17.25C18 17.6478 17.842 18.0294 17.5607 18.3107C17.2794 18.592 16.8978 18.75 16.5 18.75H3C2.60218 18.75 2.22064 18.592 1.93934 18.3107C1.65804 18.0294 1.5 17.6478 1.5 17.25V6.75C1.5 6.35218 1.65804 5.97064 1.93934 5.68934C2.22064 5.40804 2.60218 5.25 3 5.25H16.5C16.8978 5.25 17.2794 5.40804 17.5607 5.68934C17.842 5.97064 18 6.35218 18 6.75V17.25ZM13.125 12H6.375C5.67881 12 5.01113 12.2766 4.51884 12.7688C4.02656 13.2611 3.75 13.9288 3.75 14.625C3.75 15.3212 4.02656 15.9889 4.51884 16.4812C5.01113 16.9734 5.67881 17.25 6.375 17.25H13.125C13.8212 17.25 14.4889 16.9734 14.9812 16.4812C15.4734 15.9889 15.75 15.3212 15.75 14.625C15.75 13.9288 15.4734 13.2611 14.9812 12.7688C14.4889 12.2766 13.8212 12 13.125 12ZM10.5 13.5V15.75H9V13.5H10.5ZM5.25 14.625C5.25 14.3266 5.36853 14.0405 5.5795 13.8295C5.79048 13.6185 6.07663 13.5 6.375 13.5H7.5V15.75H6.375C6.07663 15.75 5.79048 15.6315 5.5795 15.4205C5.36853 15.2095 5.25 14.9234 5.25 14.625ZM13.125 15.75H12V13.5H13.125C13.4234 13.5 13.7095 13.6185 13.9205 13.8295C14.1315 14.0405 14.25 14.3266 14.25 14.625C14.25 14.9234 14.1315 15.2095 13.9205 15.4205C13.7095 15.6315 13.4234 15.75 13.125 15.75ZM4.5 9.375C4.5 9.1525 4.56598 8.93499 4.6896 8.74998C4.81321 8.56498 4.98891 8.42078 5.19448 8.33564C5.40005 8.25049 5.62625 8.22821 5.84448 8.27162C6.06271 8.31502 6.26316 8.42217 6.4205 8.5795C6.57783 8.73684 6.68498 8.93729 6.72838 9.15552C6.77179 9.37375 6.74951 9.59995 6.66436 9.80552C6.57922 10.0111 6.43502 10.1868 6.25002 10.3104C6.06501 10.434 5.8475 10.5 5.625 10.5C5.32663 10.5 5.04048 10.3815 4.8295 10.1705C4.61853 9.95952 4.5 9.67337 4.5 9.375ZM12.75 9.375C12.75 9.1525 12.816 8.93499 12.9396 8.74998C13.0632 8.56498 13.2389 8.42078 13.4445 8.33564C13.65 8.25049 13.8762 8.22821 14.0945 8.27162C14.3127 8.31502 14.5132 8.42217 14.6705 8.5795C14.8278 8.73684 14.935 8.93729 14.9784 9.15552C15.0218 9.37375 14.9995 9.59995 14.9144 9.80552C14.8292 10.0111 14.685 10.1868 14.5 10.3104C14.315 10.434 14.0975 10.5 13.875 10.5C13.5766 10.5 13.2905 10.3815 13.0795 10.1705C12.8685 9.95952 12.75 9.67337 12.75 9.375Z" fill="#5E5B7D"/>
</svg>
