<svg width="17" height="21" viewBox="0 0 17 21" fill="none" xmlns="http://www.w3.org/2000/svg">
<path d="M12 10.5C12 10.6989 11.921 10.8897 11.7803 11.0303C11.6397 11.171 11.4489 11.25 11.25 11.25H5.25C5.05109 11.25 4.86032 11.171 4.71967 11.0303C4.57902 10.8897 4.5 10.6989 4.5 10.5C4.5 10.3011 4.57902 10.1103 4.71967 9.96967C4.86032 9.82902 5.05109 9.75 5.25 9.75H11.25C11.4489 9.75 11.6397 9.82902 11.7803 9.96967C11.921 10.1103 12 10.3011 12 10.5ZM11.25 12.75H5.25C5.05109 12.75 4.86032 12.829 4.71967 12.9697C4.57902 13.1103 4.5 13.3011 4.5 13.5C4.5 13.6989 4.57902 13.8897 4.71967 14.0303C4.86032 14.171 5.05109 14.25 5.25 14.25H11.25C11.4489 14.25 11.6397 14.171 11.7803 14.0303C11.921 13.8897 12 13.6989 12 13.5C12 13.3011 11.921 13.1103 11.7803 12.9697C11.6397 12.829 11.4489 12.75 11.25 12.75ZM16.5 3V17.25C16.5 18.0456 16.1839 18.8087 15.6213 19.3713C15.0587 19.9339 14.2956 20.25 13.5 20.25H3C2.20435 20.25 1.44129 19.9339 0.87868 19.3713C0.31607 18.8087 0 18.0456 0 17.25V3C0 2.60218 0.158035 2.22064 0.43934 1.93934C0.720644 1.65804 1.10218 1.5 1.5 1.5H3V0.75C3 0.551088 3.07902 0.360322 3.21967 0.21967C3.36032 0.0790176 3.55109 0 3.75 0C3.94891 0 4.13968 0.0790176 4.28033 0.21967C4.42098 0.360322 4.5 0.551088 4.5 0.75V1.5H7.5V0.75C7.5 0.551088 7.57902 0.360322 7.71967 0.21967C7.86032 0.0790176 8.05109 0 8.25 0C8.44891 0 8.63968 0.0790176 8.78033 0.21967C8.92098 0.360322 9 0.551088 9 0.75V1.5H12V0.75C12 0.551088 12.079 0.360322 12.2197 0.21967C12.3603 0.0790176 12.5511 0 12.75 0C12.9489 0 13.1397 0.0790176 13.2803 0.21967C13.421 0.360322 13.5 0.551088 13.5 0.75V1.5H15C15.3978 1.5 15.7794 1.65804 16.0607 1.93934C16.342 2.22064 16.5 2.60218 16.5 3ZM15 3H13.5V3.75C13.5 3.94891 13.421 4.13968 13.2803 4.28033C13.1397 4.42098 12.9489 4.5 12.75 4.5C12.5511 4.5 12.3603 4.42098 12.2197 4.28033C12.079 4.13968 12 3.94891 12 3.75V3H9V3.75C9 3.94891 8.92098 4.13968 8.78033 4.28033C8.63968 4.42098 8.44891 4.5 8.25 4.5C8.05109 4.5 7.86032 4.42098 7.71967 4.28033C7.57902 4.13968 7.5 3.94891 7.5 3.75V3H4.5V3.75C4.5 3.94891 4.42098 4.13968 4.28033 4.28033C4.13968 4.42098 3.94891 4.5 3.75 4.5C3.55109 4.5 3.36032 4.42098 3.21967 4.28033C3.07902 4.13968 3 3.94891 3 3.75V3H1.5V17.25C1.5 17.6478 1.65804 18.0294 1.93934 18.3107C2.22064 18.592 2.60218 18.75 3 18.75H13.5C13.8978 18.75 14.2794 18.592 14.5607 18.3107C14.842 18.0294 15 17.6478 15 17.25V3Z" fill="#667A85"/>
</svg>
