<svg width="15" height="15" viewBox="0 0 15 15" fill="none" xmlns="http://www.w3.org/2000/svg">
<path fill-rule="evenodd" clip-rule="evenodd" d="M10 1.66667C9.53976 1.66667 9.16667 1.29357 9.16667 0.833333C9.16667 0.373096 9.53976 0 10 0H14.1667C14.6269 0 15 0.373096 15 0.833333V5C15 5.46024 14.6269 5.83333 14.1667 5.83333C13.7064 5.83333 13.3333 5.46024 13.3333 5V2.84518L6.42259 9.75592C6.09715 10.0814 5.56951 10.0814 5.24408 9.75592C4.91864 9.43049 4.91864 8.90285 5.24408 8.57741L12.1548 1.66667H10ZM0.732233 3.23223C1.20107 2.76339 1.83696 2.5 2.5 2.5H6.66667C7.1269 2.5 7.5 2.8731 7.5 3.33333C7.5 3.79357 7.1269 4.16667 6.66667 4.16667H2.5C2.27899 4.16667 2.06702 4.25446 1.91074 4.41074C1.75446 4.56702 1.66667 4.77899 1.66667 5V12.5C1.66667 12.721 1.75446 12.933 1.91074 13.0893C2.06702 13.2455 2.27899 13.3333 2.5 13.3333H10C10.221 13.3333 10.433 13.2455 10.5893 13.0893C10.7455 12.933 10.8333 12.721 10.8333 12.5V8.33333C10.8333 7.8731 11.2064 7.5 11.6667 7.5C12.1269 7.5 12.5 7.8731 12.5 8.33333V12.5C12.5 13.163 12.2366 13.7989 11.7678 14.2678C11.2989 14.7366 10.663 15 10 15H2.5C1.83696 15 1.20107 14.7366 0.732233 14.2678C0.263392 13.7989 0 13.163 0 12.5V5C0 4.33696 0.263392 3.70107 0.732233 3.23223Z" fill="#4E616B"/>
</svg>
