<svg width="15" height="15" viewBox="0 0 15 15" fill="none" xmlns="http://www.w3.org/2000/svg">
<path d="M13.75 0H1.25C0.918479 0 0.600537 0.131696 0.366116 0.366116C0.131696 0.600537 0 0.918479 0 1.25V13.75C0 14.0815 0.131696 14.3995 0.366116 14.6339C0.600537 14.8683 0.918479 15 1.25 15H13.75C14.0815 15 14.3995 14.8683 14.6339 14.6339C14.8683 14.3995 15 14.0815 15 13.75V1.25C15 0.918479 14.8683 0.600537 14.6339 0.366116C14.3995 0.131696 14.0815 0 13.75 0ZM13.75 13.75H1.25V1.25H13.75V13.75ZM3.93281 7.94219C3.8747 7.88414 3.8286 7.81521 3.79715 7.73934C3.7657 7.66346 3.74951 7.58213 3.74951 7.5C3.74951 7.41787 3.7657 7.33654 3.79715 7.26066C3.8286 7.18479 3.8747 7.11586 3.93281 7.05781L6.43281 4.55781C6.55009 4.44054 6.70915 4.37465 6.875 4.37465C7.04085 4.37465 7.19991 4.44054 7.31719 4.55781C7.43446 4.67509 7.50035 4.83415 7.50035 5C7.50035 5.16585 7.43446 5.32491 7.31719 5.44219L5.88359 6.875H10.625C10.7908 6.875 10.9497 6.94085 11.0669 7.05806C11.1842 7.17527 11.25 7.33424 11.25 7.5C11.25 7.66576 11.1842 7.82473 11.0669 7.94194C10.9497 8.05915 10.7908 8.125 10.625 8.125H5.88359L7.31719 9.55781C7.37526 9.61588 7.42132 9.68482 7.45275 9.76069C7.48417 9.83656 7.50035 9.91788 7.50035 10C7.50035 10.0821 7.48417 10.1634 7.45275 10.2393C7.42132 10.3152 7.37526 10.3841 7.31719 10.4422C7.25912 10.5003 7.19018 10.5463 7.11431 10.5777C7.03844 10.6092 6.95712 10.6253 6.875 10.6253C6.79288 10.6253 6.71156 10.6092 6.63569 10.5777C6.55982 10.5463 6.49088 10.5003 6.43281 10.4422L3.93281 7.94219Z" fill="#A0ADB4"/>
</svg>
