<svg width="14" height="13" viewBox="0 0 14 13" fill="none" xmlns="http://www.w3.org/2000/svg">
<path d="M13.9469 11.7762L10.4469 4.77625C10.4053 4.69321 10.3415 4.62338 10.2625 4.57457C10.1835 4.52576 10.0925 4.49991 9.99969 4.49991C9.90684 4.49991 9.81583 4.52576 9.73685 4.57457C9.65786 4.62338 9.59403 4.69321 9.5525 4.77625L8.19563 7.49063C7.13206 7.43082 6.10875 7.06344 5.25 6.43313C6.25755 5.35716 6.86803 3.96976 6.98063 2.5H8.5C8.63261 2.5 8.75979 2.44732 8.85355 2.35355C8.94732 2.25979 9 2.13261 9 2C9 1.86739 8.94732 1.74021 8.85355 1.64645C8.75979 1.55268 8.63261 1.5 8.5 1.5H5V0.5C5 0.367392 4.94732 0.240215 4.85355 0.146447C4.75979 0.0526784 4.63261 0 4.5 0C4.36739 0 4.24021 0.0526784 4.14645 0.146447C4.05268 0.240215 4 0.367392 4 0.5V1.5H0.5C0.367392 1.5 0.240215 1.55268 0.146447 1.64645C0.0526784 1.74021 0 1.86739 0 2C0 2.13261 0.0526784 2.25979 0.146447 2.35355C0.240215 2.44732 0.367392 2.5 0.5 2.5H5.97687C5.86551 3.72541 5.34535 4.87778 4.5 5.77187C3.97322 5.21604 3.56871 4.55604 3.3125 3.83437C3.29143 3.77141 3.25804 3.71327 3.21426 3.66335C3.17048 3.61343 3.1172 3.57273 3.05753 3.54363C2.99785 3.51452 2.93298 3.49759 2.86669 3.49383C2.8004 3.49006 2.73402 3.49954 2.67144 3.5217C2.60885 3.54386 2.5513 3.57827 2.50216 3.62291C2.45301 3.66755 2.41324 3.72154 2.38518 3.78171C2.35712 3.84189 2.34133 3.90705 2.33872 3.97339C2.33612 4.03974 2.34675 4.10593 2.37 4.16813C2.66829 5.01179 3.13817 5.78449 3.75 6.4375C2.80798 7.12974 1.66902 7.50209 0.5 7.5C0.367392 7.5 0.240215 7.55268 0.146447 7.64645C0.0526784 7.74021 0 7.86739 0 8C0 8.13261 0.0526784 8.25979 0.146447 8.35355C0.240215 8.44732 0.367392 8.5 0.5 8.5C1.95037 8.50161 3.35916 8.01558 4.5 7.12C5.43098 7.84742 6.54235 8.30782 7.715 8.45187L6.0525 11.7762C5.99316 11.8949 5.98336 12.0322 6.02526 12.158C6.06717 12.2838 6.15734 12.3878 6.27594 12.4472C6.39454 12.5065 6.53186 12.5163 6.65768 12.4744C6.78351 12.4325 6.88753 12.3424 6.94688 12.2238L7.80875 10.5H12.1906L13.0525 12.2238C13.0941 12.3068 13.158 12.3767 13.237 12.4255C13.316 12.4743 13.4071 12.5001 13.5 12.5C13.5852 12.5 13.669 12.4781 13.7434 12.4366C13.8178 12.3951 13.8804 12.3352 13.9252 12.2627C13.9699 12.1902 13.9954 12.1074 13.9992 12.0223C14.003 11.9372 13.985 11.8525 13.9469 11.7762ZM8.30875 9.5L10 6.11812L11.6906 9.5H8.30875Z" fill="#2B31B3"/>
</svg>
